<svg width="120" height="40" viewBox="0 0 120 40" fill="none" xmlns="http://www.w3.org/2000/svg"><path d="M35.3339 9.14425C35.3339 10.9528 34.8045 12.7208 33.8126 14.2245C32.8208 15.7283 31.411 16.9003 29.7616 17.5924C28.1122 18.2845 26.2973 18.4656 24.5463 18.1128C22.7954 17.76 21.187 16.8891 19.9246 15.6102C18.6622 14.3314 17.8025 12.702 17.4542 10.9282C17.1059 9.1544 17.2847 7.31579 17.9679 5.6449C18.6511 3.97401 19.808 2.54587 21.2924 1.54108C22.7768 0.536301 24.522 0 26.3073 0C28.7007 0.00215803 30.9954 0.966261 32.6877 2.68067C34.38 4.39509 35.3317 6.71971 35.3339 9.14425Z" fill="url(#paint0_linear)"></path><path d="M17.2808 9.14425C17.2861 10.2968 17.0664 11.439 16.6345 12.5052C16.2025 13.5714 15.5668 14.5406 14.7638 15.3571C13.9609 16.1736 13.0065 16.8212 11.9556 17.2627C10.9047 17.7043 9.77807 17.931 8.64039 17.9299H0V0.391198H8.64039C10.932 0.391198 13.1297 1.31339 14.7501 2.95491C16.3704 4.59643 17.2808 6.8228 17.2808 9.14425Z" fill="url(#paint1_linear)"></path><path d="M55.5109 9.5599L57.9887 0.374898H64.9477L58.8093 17.9299H53.0973L50.8447 10.8313L48.576 17.9299H42.8399L36.7015 0.374898H43.6605L46.074 9.5599L48.576 0.374898H53.0973L55.5109 9.5599Z" fill="url(#paint2_linear)"></path><path d="M83.1617 0.374898V17.9299H76.613V11.6463H72.5181V17.9299H65.9694V0.374898H72.5181V6.63407H76.613V0.374898H83.1617Z" fill="url(#paint3_linear)"></path><path d="M85.6154 17.9299V0.374898H92.1641V17.9299H85.6154Z" fill="url(#paint4_linear)"></path><path d="M106.492 12.8932V17.9299H94.6259V0.374898H101.175V12.8932H106.492Z" fill="url(#paint5_linear)"></path><path d="M114.682 5.37897V7.04971H118.777V11.2306H114.682V12.8606H120V17.9299H108.134V0.374898H120V5.37897H114.682Z" fill="url(#paint6_linear)"></path><path d="M82.864 22.1842L80.5309 21.8256C80.4666 21.8256 80.3941 21.8256 80.3941 21.8908L79.4046 23.1866C79.3469 23.2696 79.3212 23.371 79.3322 23.4719C79.3322 23.5452 79.2598 23.6838 79.1874 23.6104L78.3829 23.3985C78.2381 23.3985 78.0933 23.3985 78.0289 23.5452L74.8109 27.7017C74.7385 27.7669 74.6661 27.7669 74.5293 27.7669L73.3225 27.1964C73.2704 27.1603 73.2087 27.141 73.1456 27.141C73.0824 27.141 73.0207 27.1603 72.9686 27.1964L72.4054 27.6284C72.3533 27.6645 72.2916 27.6838 72.2284 27.6838C72.1653 27.6838 72.1036 27.6645 72.0514 27.6284L71.7699 27.4817C71.7238 27.4595 71.6736 27.4477 71.6227 27.447C71.5717 27.4463 71.5212 27.4567 71.4747 27.4776C71.4281 27.4985 71.3865 27.5294 71.3527 27.568C71.319 27.6067 71.2939 27.6523 71.2791 27.7017L71.0619 28.7042C71.0366 28.8103 71.0439 28.9218 71.0827 29.0237C71.1215 29.1256 71.19 29.2131 71.2791 29.2746L71.8423 29.6332L73.3306 30.5623L74.0144 30.9698C74.1151 31.0299 74.2322 31.0552 74.3483 31.042C74.4644 31.0288 74.5731 30.9777 74.658 30.8965L75.8567 29.8207C75.9647 29.7609 76.0889 29.738 76.2107 29.7555L76.5647 29.9674C76.7095 30.0407 76.8463 30.0407 76.9187 29.894L77.5542 29.3235C77.5979 29.2748 77.6557 29.2414 77.7194 29.2282C77.783 29.215 77.8492 29.2227 77.9082 29.2502L78.8254 29.6821C78.9702 29.7555 79.1069 29.6821 79.2518 29.6088L79.6781 29.0383L82.8962 24.8818C83.041 24.6618 82.9686 24.3765 82.687 24.3765L81.979 24.238C81.8423 24.238 81.7699 24.0179 81.8423 23.8794L82.9686 22.5183C83.1053 22.3961 83.0329 22.1842 82.864 22.1842Z" fill="white"></path><path d="M72.2848 30.5623C72.2124 30.489 72.14 30.5623 72.14 30.6357L72.494 31.5648V31.7848L72.2124 32.9992C72.2075 33.039 72.2115 33.0794 72.224 33.1175C72.2365 33.1556 72.2573 33.1903 72.2848 33.2192L73.1296 33.8631C73.1701 33.8941 73.2195 33.911 73.2703 33.911C73.3212 33.911 73.3706 33.8941 73.4111 33.8631L74.3363 33.0481C74.3629 33.0198 74.3957 32.9984 74.4321 32.9857C74.4685 32.9729 74.5074 32.9692 74.5455 32.9747L75.535 32.8362C75.6074 32.8362 75.6074 32.7628 75.535 32.6895L72.2848 30.5623Z" fill="white"></path><path d="M72.0032 33.643C71.9897 33.6274 71.9729 33.6149 71.9542 33.6064C71.9355 33.5978 71.9152 33.5934 71.8946 33.5934C71.8741 33.5934 71.8538 33.5978 71.8351 33.6064C71.8163 33.6149 71.7996 33.6274 71.786 33.643L71.0781 34.0016C71.0589 34.0016 71.0404 34.0094 71.0269 34.0231C71.0133 34.0369 71.0057 34.0555 71.0057 34.075L69.453 37.9462H69.5254L69.8794 37.7995V37.8729L68.745 39.7392C68.745 39.8044 68.745 39.8044 68.8174 39.8044L72.7756 35.7294C72.848 35.7294 72.848 35.6561 72.848 35.5909L72.9204 34.5151C72.9204 34.4417 72.9204 34.3684 72.848 34.3684L72.0032 33.643Z" fill="white"></path><path d="M15.9614 34.5721V39.5762H0C0 39.5762 7.59453 31.1247 8.59212 29.1442C9.39662 27.5795 8.54385 26.6422 7.78761 26.6422C7.03138 26.6422 6.1786 27.0823 6.1786 29.1442L0.0482703 28.7286C0.0482703 24.8166 2.75945 21.63 7.77152 21.63C12.5986 21.63 15.5511 24.2135 15.5511 27.8973C15.5511 30.1874 13.6042 32.7873 11.4562 34.5721H15.9614Z" fill="white"></path><path d="M33.9662 30.815C33.9662 35.8598 30.6596 40 25.7441 40C20.8286 40 17.5945 35.8598 17.5945 30.815C17.5945 25.7702 20.9171 21.6381 25.7441 21.6381C30.5711 21.6381 33.9662 25.7539 33.9662 30.815Z" fill="white"></path><path d="M51.5608 34.5721V39.5762H35.5994C35.5994 39.5762 43.1939 31.1247 44.1915 29.1442C44.996 27.5795 44.1432 26.6422 43.387 26.6422C42.6307 26.6422 41.778 27.0823 41.778 29.1442L35.6879 28.7286C35.6879 24.8166 38.399 21.63 43.4111 21.63C48.2381 21.63 51.1907 24.2135 51.1907 27.8973C51.1907 30.1874 49.2438 32.7873 47.0957 34.5721H51.5608Z" fill="white"></path><path d="M63.0168 21.63V39.5599H56.4682V27.8973L53.6041 28.2559V23.2274L63.0168 21.63Z" fill="white"></path><defs><linearGradient id="paint0_linear" x1="-2.45527e-06" y1="0.433812" x2="39.4808" y2="66.4458" gradientUnits="userSpaceOnUse"><stop stop-color="#FF008E"></stop><stop offset="1" stop-color="#FFCD1E"></stop></linearGradient><linearGradient id="paint1_linear" x1="-2.45527e-06" y1="0.433812" x2="39.4808" y2="66.4458" gradientUnits="userSpaceOnUse"><stop stop-color="#FF008E"></stop><stop offset="1" stop-color="#FFCD1E"></stop></linearGradient><linearGradient id="paint2_linear" x1="-2.45527e-06" y1="0.433812" x2="39.4808" y2="66.4458" gradientUnits="userSpaceOnUse"><stop stop-color="#FF008E"></stop><stop offset="1" stop-color="#FFCD1E"></stop></linearGradient><linearGradient id="paint3_linear" x1="-2.45527e-06" y1="0.433812" x2="39.4808" y2="66.4458" gradientUnits="userSpaceOnUse"><stop stop-color="#FF008E"></stop><stop offset="1" stop-color="#FFCD1E"></stop></linearGradient><linearGradient id="paint4_linear" x1="-2.45527e-06" y1="0.433812" x2="39.4808" y2="66.4458" gradientUnits="userSpaceOnUse"><stop stop-color="#FF008E"></stop><stop offset="1" stop-color="#FFCD1E"></stop></linearGradient><linearGradient id="paint5_linear" x1="-2.45527e-06" y1="0.433812" x2="39.4808" y2="66.4458" gradientUnits="userSpaceOnUse"><stop stop-color="#FF008E"></stop><stop offset="1" stop-color="#FFCD1E"></stop></linearGradient><linearGradient id="paint6_linear" x1="-2.45527e-06" y1="0.433812" x2="39.4808" y2="66.4458" gradientUnits="userSpaceOnUse"><stop stop-color="#FF008E"></stop><stop offset="1" stop-color="#FFCD1E"></stop></linearGradient></defs></svg>